<svg width="131" height="36" viewBox="0 0 131 36" fill="none" xmlns="http://www.w3.org/2000/svg">
<g clip-path="url(#clip0_645_353)">
<path d="M24.6608 30.5312H24.072V34.6988H24.6608V30.5312Z" fill="white"/>
<path d="M29.0185 32.4791C29.0185 32.2291 29.0185 31.9518 29.0126 31.7303H29.5545C29.5664 31.8324 29.5741 32.0783 29.5759 32.2796C29.945 31.3051 31.9542 31.4642 31.7987 32.8918V34.6989H31.2372C31.1096 34.0219 31.674 32.0878 30.4988 32.1169C29.2761 32.0646 29.6251 33.9061 29.5782 34.6989H29.0185V32.4785V32.4791Z" fill="white"/>
<path d="M38.9096 33.7707C38.5333 35.3652 35.7033 34.9489 35.8926 33.2238C35.768 31.4013 38.6544 31.1192 38.9025 32.6786H38.3452C38.0591 31.7225 36.3146 32.0325 36.4642 33.2143C36.3313 34.3301 37.9641 34.7553 38.3529 33.7707H38.9102H38.9096Z" fill="white"/>
<path d="M43.3455 33.2177C43.2873 34.6471 45.4425 34.6881 45.3617 33.2231C45.427 31.7658 43.263 31.7444 43.3455 33.2177ZM45.9369 33.2136C46.0532 35.2469 42.6866 35.2879 42.7739 33.2177C42.7021 31.1399 46.0301 31.1892 45.9369 33.2136Z" fill="white"/>
<path d="M50.0311 32.5382C50.0311 32.2703 50.0311 31.9984 50.0251 31.7311H50.5671C50.5766 31.819 50.5884 32.1308 50.5884 32.3992C50.7801 31.9443 51.2093 31.645 51.7892 31.651V32.1848C50.4519 32.0803 50.551 33.7187 50.5884 34.6998H50.0305V32.5382H50.0311Z" fill="white"/>
<path d="M58.2411 33.1858C58.3159 31.7855 56.1661 31.7612 56.2765 33.2274C56.1697 34.6888 58.3676 34.5979 58.2411 33.1858ZM56.2925 34.26V36H55.7352C55.7328 35.4376 55.7417 32.2214 55.7292 31.7303H56.2735C56.2854 31.8152 56.2931 32.0165 56.2931 32.2416C56.8926 31.1287 58.9522 31.7047 58.8169 33.1632C58.9421 34.6449 56.9448 35.3254 56.2931 34.26" fill="white"/>
<path d="M63.2597 33.2177C63.2015 34.6471 65.3567 34.6881 65.2759 33.2231C65.3406 31.7658 63.1772 31.7444 63.2597 33.2177ZM65.8511 33.2136C65.9674 35.2469 62.6008 35.2879 62.6881 33.2177C62.6162 31.1399 65.9443 31.1892 65.8511 33.2136Z" fill="white"/>
<path d="M69.9452 32.5382C69.9452 32.2703 69.9451 31.9984 69.9392 31.7311H70.4817C70.4912 31.819 70.5025 32.1308 70.5025 32.3992C70.6948 31.9443 71.1239 31.645 71.7032 31.651V32.1848C70.3654 32.0803 70.4645 33.7187 70.5025 34.6998H69.9452V32.5382Z" fill="white"/>
<path d="M77.605 33.2536C77.256 33.2411 75.7265 33.1621 75.8956 33.7993C75.8956 34.0951 76.1135 34.3433 76.6055 34.3433C77.462 34.3397 77.6276 33.8142 77.605 33.2536ZM78.1511 33.965C78.1511 34.2542 78.1689 34.6307 78.1784 34.6996H77.6478C77.624 34.5915 77.6145 34.3635 77.6128 34.2655C75.8606 36.1789 73.4888 32.4923 77.605 32.8575C77.8466 31.9442 76.171 31.7696 76.0725 32.5944H75.5146C75.4612 31.3379 78.3375 31.3254 78.1511 32.6669V33.965Z" fill="white"/>
<path d="M82.8255 33.228C82.7573 34.6366 84.9237 34.6954 84.802 33.2036C84.9522 31.6911 82.73 31.823 82.8255 33.228ZM85.3386 30.2891C85.341 30.9482 85.3327 34.1045 85.3445 34.6995H84.8026C84.7866 34.5736 84.7813 34.3949 84.7789 34.2476C84.2043 35.3023 82.0688 34.6853 82.251 33.2393C82.1115 31.7624 84.2162 31.1727 84.7789 32.1056V30.2891H85.3386Z" fill="white"/>
<path d="M90.0027 33.2177C89.9445 34.6471 92.0997 34.6881 92.019 33.2231C92.0842 31.7658 89.9202 31.7444 90.0027 33.2177ZM92.5941 33.2136C92.711 35.2469 89.3444 35.2879 89.4311 33.2177C89.3593 31.1399 92.6867 31.1892 92.5941 33.2136Z" fill="white"/>
<path d="M96.6882 32.5382C96.6882 32.2703 96.6882 31.9984 96.6823 31.7311H97.2242C97.2337 31.819 97.2455 32.1308 97.2455 32.3992C97.4378 31.9443 97.867 31.645 98.4463 31.651V32.1848C97.109 32.0803 97.2075 33.7187 97.2455 34.6998H96.6876V32.5382H96.6882Z" fill="white"/>
<path d="M104.348 33.2536C103.999 33.2411 102.47 33.1621 102.639 33.7993C102.639 34.0951 102.857 34.3433 103.349 34.3433C104.205 34.3397 104.371 33.8142 104.348 33.2536ZM104.894 33.965C104.894 34.2542 104.912 34.6307 104.922 34.6996H104.391C104.367 34.5915 104.357 34.3635 104.356 34.2655C102.604 36.1789 100.231 32.4923 104.348 32.8575C104.59 31.9448 102.914 31.7696 102.816 32.5944H102.258C102.204 31.3379 105.081 31.3254 104.894 32.6669V33.965Z" fill="white"/>
<path d="M64.1761 23.5995V13.0944H55.2568V23.5995H50.8076V0.0458984H55.2568V11.744H64.1761V0.0458984H68.6253V23.5995H64.1761Z" fill="#CA8A2A"/>
<path d="M64.1761 23.5995V13.0944H55.2568V23.5995H50.8076V0.0458984H55.2568V11.744H64.1761V0.0458984H68.6253V23.5995H64.1761Z" stroke="#CA8A2A" stroke-miterlimit="10"/>
<path d="M78.4628 23.5994V0.0297852H82.8912V22.3161H92.9934V23.5994H78.4628Z" fill="#CA8A2A"/>
<path d="M78.4628 23.5994V0.0297852H82.8912V22.3161H92.9934V23.5994H78.4628Z" stroke="#CA8A2A" stroke-miterlimit="10"/>
<path d="M122.762 23.5994C119.843 23.6255 116.183 22.2324 114.682 19.6735L115.154 18.6087C120.509 26.7438 137.237 19.5102 121.807 13.453C116.803 11.5657 112.873 7.81442 115.977 2.98528C119.349 -1.47092 127.667 -0.679327 130.375 4.10409L129.92 5.11956C128.003 1.50958 122.015 0.240537 118.743 2.24773C116.602 3.61357 116.795 5.39866 118.793 6.80608C120.798 8.39045 127.669 10.8466 129.297 12.9535C133.649 17.8902 128.812 24.0281 122.762 23.5988" fill="#CA8A2A"/>
<path d="M122.762 23.5994C119.843 23.6255 116.183 22.2324 114.682 19.6735L115.154 18.6087C120.509 26.7438 137.237 19.5102 121.807 13.453C116.803 11.5657 112.873 7.81442 115.977 2.98528C119.349 -1.47092 127.667 -0.679327 130.375 4.10409L129.92 5.11956C128.003 1.50958 122.015 0.240537 118.743 2.24773C116.602 3.61357 116.795 5.39866 118.793 6.80607C120.798 8.39045 127.669 10.8466 129.297 12.9535C133.649 17.8902 128.812 24.0281 122.762 23.5988V23.5994Z" stroke="#CA8A2A" stroke-miterlimit="10"/>
<path d="M0.0456543 0.0690188H4.98278L12.1089 16.373L19.5241 0.0488281H21.0424L10.4013 23.5864L0.0456543 0.0690188Z" fill="#CA8A2A"/>
<path d="M0.0456543 0.0690188H4.98278L12.1089 16.373L19.5241 0.0488281H21.0424L10.4013 23.5864L0.0456543 0.0690188Z" stroke="#CA8A2A" stroke-miterlimit="10"/>
<path d="M38.0576 23.5913L34.8792 16.4034H26.9678L23.6445 23.5913H22.1523L26.0733 15.088H34.3515C33.5378 13.2335 31.017 7.47495 30.2103 5.73321L32.6558 0.114258C35.4959 6.53906 40.1184 17.2021 42.9176 23.5913H38.0576Z" fill="#CA8A2A"/>
<path d="M38.0576 23.5913L34.8792 16.4034H26.9678L23.6445 23.5913H22.1523L26.0733 15.088H34.3515C33.5378 13.2335 31.017 7.47495 30.2103 5.73321L32.6558 0.114258C35.4959 6.53906 40.1184 17.2021 42.9176 23.5913H38.0576Z" stroke="#CA8A2A" stroke-miterlimit="10"/>
<path d="M101.695 11.7554V0.0673828H106.141V23.5996H101.695V12.05" fill="#CA8A2A"/>
<path d="M101.695 11.7554V0.0673828H106.141V23.5996H101.695V12.05" stroke="#CA8A2A" stroke-miterlimit="10"/>
</g>
<defs>
<clipPath id="clip0_645_353">
<rect width="131" height="36" fill="white"/>
</clipPath>
</defs>
</svg>
