<svg width="236" height="88" viewBox="0 0 236 88" fill="none" xmlns="http://www.w3.org/2000/svg">
<g style="mix-blend-mode:luminosity" opacity="0.8">
<path d="M112.57 6.31177V20.8004L112.279 21.0928H103.417V15.0631H99.5214V36.4574H104.002V45.2088H82.5784V36.4574H87.0576V15.0631H83.1619V20.8004L82.8694 21.0928H74.3L74.0089 20.8004V6.31177H112.57Z" fill="url(#paint0_linear_645_137)"/>
<path d="M215.014 33.3454C215.238 37.1529 220.052 39.3303 223.334 38.0555C225.183 37.3376 224.967 35.4793 223.252 34.7475C218.421 32.6849 210.547 32.8206 208.356 26.8679C206.58 22.0444 208.707 16.4122 213.519 14.4461C217.4 12.8607 223.645 13.1839 226.409 16.6221C226.714 16.6095 226.2 14.344 226.798 14.0921H233.614L233.906 14.3831V24.6906L233.614 24.9816H226.894C226.347 22.2935 223.639 20.5178 220.954 20.5108C218.511 20.5052 216.906 22.6014 219.439 23.7726C224.31 26.0241 232.305 25.8856 234.585 31.9866C238.933 43.6248 223.161 49.9302 215.305 42.8762L215.208 45.2088H207.807V33.3454H215.014Z" fill="url(#paint1_linear_645_137)"/>
<path d="M158.339 14.0908V20.8006C157.802 21.4149 156.869 20.8789 156.198 21.1882L159.021 24.7844L161.843 21.1882C161.173 20.8789 160.24 21.4149 159.702 20.8006V14.0908H173.919V21.093L171.669 21.2763L164.786 29.1909L171.818 37.9703C172.302 38.2529 173.654 37.6582 174.114 38.3047V45.209H168.076C169.11 44.0937 167.725 43.0596 166.72 42.5754C164.256 41.3888 163.595 43.1883 162.817 45.209H158.338V38.2068L160.673 38.1102L157.654 34.3166L154.444 38.1102L156.585 38.2068V45.209H148.21C149.087 43.089 149.093 40.1014 147.787 38.1424C147.517 37.7366 146.027 36.4996 146.08 36.1917L151.693 29.2049L145.009 21.2735L142.561 21.093V14.0908H158.337H158.339Z" fill="url(#paint2_linear_645_137)"/>
<path d="M196.22 14.0905L204.127 37.9924C204.411 38.2372 206.439 37.6593 206.835 38.3044V45.2087H205.082C205.46 42.8662 203.106 42 201.137 42.3373C199.521 42.6143 196.508 45.2087 196.221 45.2087H191.352L191.059 44.9176V38.4989C191.41 37.8748 193.581 38.3996 193.785 38.2064C193.616 37.5921 193.592 35.9997 192.912 35.871C190.985 35.5058 187.982 36.1536 185.929 35.864L185.217 38.2064H187.944V44.4306C187.4 44.1774 186.569 45.2087 186.483 45.2087H174.311V38.3044C174.663 37.6831 176.369 38.2176 176.628 37.9924L182.101 21.0913H178.79V14.0891H196.221L196.22 14.0905ZM191.448 29.4551L189.693 22.6488C189.39 22.6782 189.4 22.9454 189.318 23.1483C188.556 25.0752 188.344 27.4988 187.552 29.4565H191.448V29.4551Z" fill="url(#paint3_linear_645_137)"/>
<path d="M140.227 14.0908V24.3982H132.826V21.0916H127.372V25.5653H134.773V32.762H127.372V38.2082H133.8V36.4562C136.328 36.3079 138.914 35.9776 141.395 36.6521V45.209H132.631C133.1 44.4226 134.807 42.4103 135.683 42.3348L137.694 43.8474C137.442 41.2783 135.412 38.3579 132.49 39.329C130.655 39.9391 128.095 43.6039 126.985 45.209H113.936V38.3047L114.229 38.0137H117.441V21.093H113.936V14.0908H140.228H140.227Z" fill="url(#paint4_linear_645_137)"/>
<path d="M193.005 57.8506C193.418 57.8408 193.844 57.8912 194.255 57.8324C196.463 57.5231 200.961 53.2832 202.651 51.6306C204.341 49.978 205.773 48.2554 207.32 46.572L207.418 47.2493C206.068 48.692 204.942 50.3558 203.622 51.8209C201.371 54.3243 196.099 59.7481 192.685 59.9733C191.395 60.0587 190.215 59.1379 189.585 58.0521L189.501 55.7096C188.537 57.0642 185.137 61.1712 183.563 61.2593C182.615 61.3125 181.356 60.1637 181.229 59.2401C180.842 56.4442 183.935 51.6698 185.018 49.0964C181.283 52.3792 178.889 56.8319 176.05 60.8493C174.939 61.7841 173.296 60.0895 173.327 58.9267C173.391 56.4289 175.561 52.813 176.688 50.5951C176.775 50.4244 177.034 50.0367 176.647 50.0689L172.845 54.1494C171.691 55.5263 166.947 61.882 166.8 63.2729C166.756 63.7067 167.597 64.5827 166.122 64.1755C162.455 63.1652 165.443 58.679 165.836 56.4834C164.526 57.9541 163.446 59.6739 162.139 61.1558C161.316 62.0877 158.627 64.9955 157.467 65.0221C156.609 65.0417 155.309 63.9348 155.282 63.0407C155.228 61.1264 156.746 58.7279 157.167 56.8738C155.677 57.7736 153.505 60.6576 151.581 59.6375C149.257 58.4047 150.728 56.1252 151.437 54.3551C151.51 54.1732 151.66 53.9073 151.329 53.9577C151.206 54.5454 150.413 54.8168 149.962 55.2184C147.964 56.9942 145.925 59.5563 144.508 61.8288C143.437 63.5444 142.041 65.7106 142.175 67.7662C140.396 67.8012 139.49 66.4844 139.665 64.7716C139.938 62.1157 143.388 55.2954 144.936 52.9208C145.188 52.5331 146.169 51.1478 146.444 50.9267C147.874 49.7751 150.083 52.4492 149.772 52.7878C148.834 52.7276 148.452 53.556 147.975 54.2053C147.073 55.4339 146.146 57.1411 145.477 58.5181C145.388 58.7014 145.108 59.0596 145.388 59.2065C146.625 57.7232 147.779 56.156 149.086 54.7315C150.111 53.6148 154.107 49.4378 155.369 49.3231C155.985 49.2671 157.619 50.4174 157.475 51.0569C157.391 51.4291 155.919 53.0845 155.571 53.6218C154.618 55.0883 153.566 56.6681 153.279 58.4299C154.969 57.6169 157.096 56.2386 158.248 54.7399C159.166 53.5449 160.636 49.9822 161.774 49.3105C162.816 48.6948 164.592 50.1417 164.966 51.1366C165.033 51.5858 164.463 51.3815 164.076 51.6124C162.489 52.5583 159.357 60.1315 158.814 62.1157C158.763 62.3046 158.585 62.5635 158.922 62.5131L162.241 59.506C163.775 57.4056 166.064 55.4004 167.464 53.2454C168.263 52.014 170.217 47.5739 171.398 47.0464C172.21 46.684 174.534 48.1728 174.312 49.2881C173.433 49.2363 173.037 49.95 172.593 50.5881C171.137 52.6857 169.907 55.6984 168.86 58.0409C170.457 55.9951 171.943 53.8009 173.628 51.8139C174.431 50.8665 178.026 46.7945 178.935 46.6028C179.668 46.4489 180.801 47.49 181.029 48.1323C181.329 48.9775 180.255 50.0675 179.857 50.84C178.876 52.7472 177.539 55.3374 177.083 57.4056C177.039 57.6001 176.885 58.0885 177.229 58.0381C179.07 54.8462 181.293 51.6306 183.664 48.8067C184.351 47.9881 186.848 45.0622 187.73 44.9138C188.612 44.7655 190.196 46.2432 189.858 47.2003C188.644 49.3147 187.373 51.4095 186.352 53.6288C185.6 55.2618 184.609 57.2363 184.535 59.0106C186.233 57.7778 188.076 56.1728 189.408 54.5412C191.496 51.9846 192.611 49.067 195.148 46.6588C196.508 45.3686 200.565 42.4622 202.435 42.6791C203.534 42.8064 204.852 43.793 204.616 45.0146C204.057 47.9028 198.481 52.3764 195.871 53.6036C195.281 53.8807 194.37 53.8429 193.894 54.3523C193.48 54.7958 192.667 57.5035 193.008 57.845L193.005 57.8506ZM194.566 53.1824C198.288 51.3129 201.464 47.6187 203.131 43.8489C202.298 44.4534 201.362 44.8998 200.509 45.6037C199.697 46.274 198.47 47.5166 197.774 48.3184C197.368 48.7872 194.311 52.9026 194.566 53.1824Z" fill="url(#paint5_linear_645_137)"/>
<path d="M118.856 66.2662C117.579 69.0704 115.882 71.9404 114.904 74.865C114.397 76.3819 113.603 78.3353 114.907 79.6311C113.702 80.0047 112.875 79.41 112.475 78.2709C111.411 75.2484 114.102 70.1773 114.907 67.1883C105.499 68.0867 111.315 61.528 115.591 59.4095C116.008 59.7285 115.57 59.7327 115.437 59.8531C113.793 61.3503 111.578 62.9372 111.207 65.2376C111.632 65.8254 115.681 64.5898 116.418 64.2217C120.08 57.0362 124.144 48.6599 129.52 42.591C131.948 39.8497 134.341 37.7927 136.721 42.0984C134.606 41.2546 132.765 44.1358 131.58 45.6205C127.568 50.6469 124.341 56.566 121.139 62.1298C121.493 62.4292 128.463 58.2634 129.303 57.7387C133.875 54.8869 145.542 46.796 146.065 41.2225C146.261 39.1347 145.545 37.9256 143.72 36.9573C139.466 34.6988 132.485 36.0086 128.056 37.4345L127.975 35.8938C133.098 34.4875 142.401 33.3667 146.564 37.4233C151.93 42.6526 144.603 50.7281 140.512 54.1522C134.149 59.4766 126.527 63.2268 118.854 66.2689L118.856 66.2662Z" fill="url(#paint6_linear_645_137)"/>
<path d="M113.349 45.6953C110.739 47.8852 107.771 50.397 106.061 53.393C105.136 55.0134 103.956 57.4174 106.005 58.6684L107.894 59.4044C102.2 60.5337 100.665 56.7079 103.187 52.0804C105.342 48.1273 109.663 44.7647 113.347 42.2921V45.6953H113.349Z" fill="url(#paint7_linear_645_137)"/>
<path d="M167.882 44.6222C166.21 44.9034 165.429 46.7589 164.429 47.9441C161.724 48.3444 163.709 43.2634 164.769 42.7806C166.022 42.2083 168.34 44.1002 167.882 44.6236V44.6222Z" fill="url(#paint8_linear_645_137)"/>
<path d="M55.1165 87.9952H0V0.670413L0.659081 0.461914L54.6393 0.466112L55.2271 0.657819L55.1179 87.9952H55.1165ZM31.356 3.97701H6.23258L27.5205 23.9719C28.5644 23.6151 29.5761 23.1393 30.62 22.7867C31.1671 22.6006 33.7642 22.0899 33.8762 21.747L31.3574 3.97701H31.356ZM47.7155 3.97701H34.8613L37.3955 21.2852C39.0075 21.3748 40.5608 21.0558 42.1742 21.0837C42.7843 21.0935 43.9317 21.5987 44.1724 20.9578L47.7155 3.97841V3.97701ZM51.6112 22.6482V3.97701L47.7029 21.5553L51.6112 22.6468V22.6482ZM3.5053 6.79665C3.68721 10.7343 3.37097 14.7182 3.5053 18.6601L20.591 27.8733L24.1495 25.5672C23.9172 25.5686 23.7255 25.4286 23.559 25.2817C16.7233 19.2576 10.4851 12.4807 3.60046 6.50699C3.00434 6.45941 3.5011 6.70849 3.5053 6.79665ZM3.5053 22.6482V31.9831C3.79776 31.8403 4.03844 31.7858 4.37008 31.7774C8.16924 31.6822 12.0132 31.7046 15.6892 32.7485C16.2461 32.7163 17.5489 30.851 17.9183 30.3333L3.5039 22.6496L3.5053 22.6482ZM51.6112 26.1479C40.5999 22.7098 27.354 24.9375 19.6717 33.9253C22.4969 34.8685 25.2172 36.1489 27.8549 37.5216C35.5008 41.4985 42.4205 47.9997 51.6112 47.3476V26.1479ZM3.5053 35.2897V68.7419C11.0407 63.8611 18.4822 58.6038 27.0223 55.5659C34.9537 52.7448 43.2573 51.7891 51.6098 53.1828L51.614 50.9621C49.7235 50.7424 47.8106 50.7116 45.9258 50.3996C39.1279 49.2759 33.4242 44.4189 27.4645 41.2186C20.0663 37.2459 12.1027 34.2416 3.5053 35.2911V35.2897ZM51.6112 78.0768V56.7805C51.4867 56.5832 51.3439 56.53 51.1228 56.4908C46.1231 55.5855 39.6288 55.9297 34.6654 56.9736C23.0972 59.407 13.0011 66.4736 3.5053 73.1176V82.9394C18.4081 76.6075 35.8157 72.3326 51.6112 78.0768ZM51.6112 84.4955C51.6742 82.118 51.982 82.0103 49.8551 81.0951C39.5392 76.6565 23.2973 79.3712 12.9479 82.9352L9.15437 84.4955H51.6112Z" fill="url(#paint9_linear_645_137)"/>
<path d="M97.5748 60.5927H78.4867V62.6469H97.5748V60.5927Z" fill="url(#paint10_linear_645_137)"/>
<path d="M228.366 60.5927H209.278V62.6469H228.366V60.5927Z" fill="url(#paint11_linear_645_137)"/>
<path d="M124.538 79.7745C123.957 79.7745 123.418 79.6794 122.922 79.4905C122.424 79.3001 121.993 79.0301 121.627 78.6788C121.262 78.3276 120.977 77.9162 120.774 77.4432C120.569 76.9703 120.467 76.4511 120.467 75.8858C120.467 75.3205 120.569 74.8013 120.774 74.3283C120.978 73.8554 121.263 73.444 121.633 73.0927C122.002 72.7415 122.435 72.4714 122.933 72.2811C123.431 72.0908 123.97 71.9971 124.549 71.9971C125.201 71.9971 125.792 72.1104 126.322 72.3357C126.852 72.561 127.296 72.8926 127.654 73.3292L126.526 74.3605C126.276 74.0667 125.99 73.8456 125.673 73.6945C125.354 73.5447 125.008 73.4692 124.636 73.4692C124.285 73.4692 123.963 73.5279 123.669 73.6469C123.375 73.7644 123.12 73.9309 122.906 74.1464C122.692 74.3619 122.524 74.6152 122.407 74.9091C122.289 75.2029 122.229 75.529 122.229 75.8872C122.229 76.2454 122.288 76.5715 122.407 76.8653C122.524 77.1592 122.691 77.4139 122.906 77.628C123.122 77.842 123.375 78.01 123.669 78.1275C123.963 78.2451 124.285 78.3052 124.636 78.3052C125.008 78.3052 125.354 78.2283 125.673 78.0743C125.992 77.9204 126.276 77.6965 126.526 77.4027L127.654 78.434C127.296 78.8706 126.852 79.2036 126.322 79.4331C125.792 79.6626 125.197 79.7773 124.539 79.7773L124.538 79.7745Z" fill="url(#paint12_linear_645_137)"/>
<path d="M131.436 79.7324C130.828 79.7324 130.285 79.6037 129.809 79.3462C129.333 79.0888 128.958 78.7361 128.687 78.2883C128.414 77.8406 128.278 77.3312 128.278 76.7575C128.278 76.1838 128.414 75.6632 128.687 75.2154C128.958 74.7677 129.333 74.4164 129.809 74.1631C130.285 73.9085 130.828 73.7811 131.436 73.7811C132.045 73.7811 132.6 73.9085 133.08 74.1631C133.56 74.4178 133.937 74.7691 134.208 75.2154C134.481 75.6632 134.617 76.1768 134.617 76.7575C134.617 77.3382 134.481 77.8504 134.208 78.2939C133.935 78.7375 133.56 79.0888 133.08 79.3462C132.6 79.6037 132.052 79.7324 131.436 79.7324ZM131.436 78.3569C131.723 78.3569 131.975 78.2939 132.193 78.1694C132.412 78.0449 132.586 77.8602 132.719 77.6167C132.852 77.3732 132.918 77.0863 132.918 76.7575C132.918 76.4286 132.852 76.1348 132.719 75.8983C132.586 75.6618 132.412 75.4813 132.193 75.3554C131.975 75.2308 131.726 75.1679 131.446 75.1679C131.166 75.1679 130.916 75.2308 130.695 75.3554C130.472 75.4813 130.296 75.6618 130.163 75.8983C130.03 76.1348 129.964 76.4216 129.964 76.7575C129.964 77.0933 130.03 77.3732 130.163 77.6167C130.296 77.8602 130.472 78.0449 130.695 78.1694C130.917 78.2953 131.163 78.3569 131.436 78.3569Z" fill="url(#paint13_linear_645_137)"/>
<path d="M139.247 73.7798C139.706 73.7798 140.116 73.8707 140.477 74.054C140.838 74.2374 141.124 74.5158 141.331 74.8922C141.538 75.2687 141.643 75.75 141.643 76.3377V79.6471H139.967V76.5966C139.967 76.1306 139.864 75.7878 139.66 75.5653C139.456 75.3428 139.168 75.2323 138.795 75.2323C138.531 75.2323 138.292 75.2897 138.08 75.4044C137.869 75.5191 137.704 75.6871 137.586 75.9096C137.469 76.132 137.409 76.4245 137.409 76.7911V79.6485H135.732V73.8679H137.333V75.4688L137.032 74.986C137.239 74.5998 137.537 74.3017 137.924 74.0946C138.31 73.8875 138.751 73.7826 139.244 73.7826L139.247 73.7798Z" fill="url(#paint14_linear_645_137)"/>
<path d="M145.638 79.733C145.094 79.733 144.602 79.6099 144.166 79.3622C143.729 79.1145 143.385 78.7703 143.134 78.3253C142.884 77.8817 142.758 77.3584 142.758 76.7567C142.758 76.1549 142.883 75.6316 143.134 75.188C143.385 74.7444 143.729 74.3988 144.166 74.1511C144.602 73.9034 145.094 73.7803 145.638 73.7803C146.125 73.7803 146.552 73.888 146.917 74.1021C147.282 74.3176 147.565 74.6437 147.766 75.0803C147.966 75.5169 148.067 76.0766 148.067 76.7567C148.067 77.4367 147.971 77.9881 147.777 78.4331C147.584 78.8766 147.306 79.2055 146.945 79.4154C146.582 79.6267 146.149 79.7316 145.639 79.7316L145.638 79.733ZM145.916 78.3575C146.196 78.3575 146.447 78.2945 146.668 78.17C146.89 78.0454 147.067 77.8607 147.199 77.6172C147.332 77.3738 147.398 77.0869 147.398 76.7581C147.398 76.4292 147.332 76.1354 147.199 75.8989C147.067 75.6624 146.89 75.4819 146.668 75.3559C146.445 75.2314 146.195 75.1684 145.916 75.1684C145.638 75.1684 145.397 75.2314 145.175 75.3559C144.952 75.4819 144.776 75.6624 144.643 75.8989C144.51 76.1354 144.444 76.4222 144.444 76.7581C144.444 77.0939 144.51 77.3738 144.643 77.6172C144.776 77.8607 144.952 78.0454 145.175 78.17C145.397 78.2959 145.643 78.3575 145.916 78.3575ZM147.443 79.6463V78.4638L147.475 76.7455L147.367 75.0369V71.6743H149.044V79.6463H147.443Z" fill="url(#paint15_linear_645_137)"/>
<path d="M153.331 79.7324C152.723 79.7324 152.18 79.6037 151.704 79.3462C151.228 79.0888 150.853 78.7361 150.582 78.2883C150.309 77.8406 150.173 77.3312 150.173 76.7575C150.173 76.1838 150.309 75.6632 150.582 75.2154C150.853 74.7677 151.228 74.4164 151.704 74.1631C152.18 73.9085 152.723 73.7811 153.331 73.7811C153.94 73.7811 154.496 73.9085 154.976 74.1631C155.456 74.4178 155.832 74.7691 156.103 75.2154C156.376 75.6632 156.512 76.1768 156.512 76.7575C156.512 77.3382 156.376 77.8504 156.103 78.2939C155.831 78.7375 155.456 79.0888 154.976 79.3462C154.496 79.6037 153.947 79.7324 153.331 79.7324ZM153.331 78.3569C153.618 78.3569 153.87 78.2939 154.088 78.1694C154.307 78.0449 154.482 77.8602 154.615 77.6167C154.747 77.3732 154.813 77.0863 154.813 76.7575C154.813 76.4286 154.747 76.1348 154.615 75.8983C154.482 75.6618 154.307 75.4813 154.088 75.3554C153.87 75.2308 153.621 75.1679 153.341 75.1679C153.061 75.1679 152.811 75.2308 152.59 75.3554C152.367 75.4813 152.191 75.6618 152.058 75.8983C151.925 76.1348 151.859 76.4216 151.859 76.7575C151.859 77.0933 151.925 77.3732 152.058 77.6167C152.191 77.8602 152.367 78.0449 152.59 78.1694C152.812 78.2953 153.058 78.3569 153.331 78.3569Z" fill="url(#paint16_linear_645_137)"/>
<path d="M165.029 73.7798C165.488 73.7798 165.894 73.8707 166.248 74.054C166.602 74.2374 166.88 74.5158 167.081 74.8922C167.281 75.2687 167.381 75.75 167.381 76.3377V79.6471H165.705V76.5966C165.705 76.1306 165.61 75.7878 165.421 75.5653C165.231 75.3428 164.965 75.2323 164.621 75.2323C164.37 75.2323 164.148 75.2883 163.955 75.3988C163.761 75.5094 163.612 75.6745 163.508 75.8928C163.405 76.1111 163.353 76.3965 163.353 76.7464V79.6471H161.676V76.5966C161.676 76.1306 161.581 75.7878 161.392 75.5653C161.202 75.3428 160.929 75.2323 160.571 75.2323C160.327 75.2323 160.109 75.2883 159.916 75.3988C159.723 75.5094 159.572 75.6745 159.465 75.8928C159.358 76.1111 159.305 76.3965 159.305 76.7464V79.6471H157.628V73.8665H159.229V75.4352L158.928 74.9846C159.121 74.5914 159.404 74.2919 159.778 74.0876C160.15 73.8833 160.568 73.7812 161.034 73.7812C161.564 73.7812 162.029 73.9155 162.431 74.1842C162.832 74.4529 163.097 74.8629 163.225 75.4142L162.635 75.2533C162.828 74.8097 163.136 74.4529 163.559 74.1842C163.981 73.9155 164.472 73.7812 165.031 73.7812L165.029 73.7798Z" fill="url(#paint17_linear_645_137)"/>
<path d="M168.758 73.1246L170.207 71.5769H172.001L170.068 73.1246H168.756H168.758ZM168.896 79.6454V73.8648H170.573V79.6454H168.896Z" fill="url(#paint18_linear_645_137)"/>
<path d="M175.644 73.7798C176.103 73.7798 176.513 73.8707 176.874 74.054C177.235 74.2374 177.521 74.5158 177.728 74.8922C177.935 75.2687 178.04 75.75 178.04 76.3377V79.6471H176.364V76.5966C176.364 76.1306 176.261 75.7878 176.057 75.5653C175.853 75.3428 175.564 75.2323 175.192 75.2323C174.928 75.2323 174.689 75.2897 174.477 75.4044C174.266 75.5191 174.101 75.6871 173.983 75.9096C173.866 76.132 173.806 76.4245 173.806 76.7911V79.6485H172.129V73.8679H173.73V75.4688L173.429 74.986C173.636 74.5998 173.934 74.3017 174.32 74.0946C174.707 73.8875 175.147 73.7826 175.641 73.7826L175.644 73.7798Z" fill="url(#paint19_linear_645_137)"/>
<path d="M180.393 73.0599C180.078 73.0599 179.823 72.9704 179.63 72.7913C179.437 72.6121 179.341 72.3896 179.341 72.1252C179.341 71.8607 179.437 71.6382 179.63 71.4591C179.823 71.28 180.078 71.1904 180.393 71.1904C180.708 71.1904 180.953 71.2744 181.15 71.4423C181.347 71.6102 181.445 71.8271 181.445 72.093C181.445 72.3729 181.349 72.6037 181.155 72.7857C180.962 72.969 180.708 73.0599 180.393 73.0599ZM179.555 79.6451V73.8645H181.231V79.6451H179.555Z" fill="url(#paint20_linear_645_137)"/>
<path d="M185.528 79.7324C184.919 79.7324 184.376 79.6037 183.901 79.3462C183.425 79.0888 183.05 78.7361 182.778 78.2883C182.505 77.8406 182.37 77.3312 182.37 76.7575C182.37 76.1838 182.505 75.6632 182.778 75.2154C183.05 74.7677 183.425 74.4164 183.901 74.1631C184.376 73.9085 184.919 73.7811 185.528 73.7811C186.137 73.7811 186.692 73.9085 187.172 74.1631C187.652 74.4178 188.029 74.7691 188.3 75.2154C188.573 75.6632 188.709 76.1768 188.709 76.7575C188.709 77.3382 188.573 77.8504 188.3 78.2939C188.027 78.7375 187.652 79.0888 187.172 79.3462C186.692 79.6037 186.144 79.7324 185.528 79.7324ZM185.528 78.3569C185.815 78.3569 186.067 78.2939 186.285 78.1694C186.503 78.0449 186.678 77.8602 186.811 77.6167C186.944 77.3732 187.01 77.0863 187.01 76.7575C187.01 76.4286 186.944 76.1348 186.811 75.8983C186.678 75.6618 186.503 75.4813 186.285 75.3554C186.067 75.2308 185.818 75.1679 185.538 75.1679C185.258 75.1679 185.007 75.2308 184.786 75.3554C184.564 75.4813 184.388 75.6618 184.255 75.8983C184.122 76.1348 184.056 76.4216 184.056 76.7575C184.056 77.0933 184.122 77.3732 184.255 77.6167C184.388 77.8602 184.564 78.0449 184.786 78.1694C185.009 78.2953 185.255 78.3569 185.528 78.3569Z" fill="url(#paint21_linear_645_137)"/>
</g>
<defs>
<linearGradient id="paint0_linear_645_137" x1="74.0087" y1="25.7603" x2="112.571" y2="25.7603" gradientUnits="userSpaceOnUse">
<stop stop-color="#F68D33"/>
<stop offset="1" stop-color="#FFCA29"/>
</linearGradient>
<linearGradient id="paint1_linear_645_137" x1="207.735" y1="29.6848" x2="235.33" y2="29.6848" gradientUnits="userSpaceOnUse">
<stop stop-color="#F68D33"/>
<stop offset="1" stop-color="#FFCA29"/>
</linearGradient>
<linearGradient id="paint2_linear_645_137" x1="142.56" y1="29.6499" x2="174.115" y2="29.6499" gradientUnits="userSpaceOnUse">
<stop stop-color="#F68D33"/>
<stop offset="1" stop-color="#FFCA29"/>
</linearGradient>
<linearGradient id="paint3_linear_645_137" x1="174.31" y1="29.6489" x2="206.836" y2="29.6489" gradientUnits="userSpaceOnUse">
<stop stop-color="#F68D33"/>
<stop offset="1" stop-color="#FFCA29"/>
</linearGradient>
<linearGradient id="paint4_linear_645_137" x1="113.936" y1="29.6499" x2="141.396" y2="29.6499" gradientUnits="userSpaceOnUse">
<stop stop-color="#F68D33"/>
<stop offset="1" stop-color="#FFCA29"/>
</linearGradient>
<linearGradient id="paint5_linear_645_137" x1="139.643" y1="55.2172" x2="207.42" y2="55.2172" gradientUnits="userSpaceOnUse">
<stop stop-color="#F68D33"/>
<stop offset="1" stop-color="#FFCA29"/>
</linearGradient>
<linearGradient id="paint6_linear_645_137" x1="109.851" y1="57.1747" x2="148.458" y2="57.1747" gradientUnits="userSpaceOnUse">
<stop stop-color="#F68D33"/>
<stop offset="1" stop-color="#FFCA29"/>
</linearGradient>
<linearGradient id="paint7_linear_645_137" x1="102.014" y1="50.9481" x2="113.349" y2="50.9481" gradientUnits="userSpaceOnUse">
<stop stop-color="#F68D33"/>
<stop offset="1" stop-color="#FFCA29"/>
</linearGradient>
<linearGradient id="paint8_linear_645_137" x1="163.068" y1="45.3203" x2="167.941" y2="45.3203" gradientUnits="userSpaceOnUse">
<stop stop-color="#F68D33"/>
<stop offset="1" stop-color="#FFCA29"/>
</linearGradient>
<linearGradient id="paint9_linear_645_137" x1="-0.000336212" y1="44.2285" x2="55.2284" y2="44.2285" gradientUnits="userSpaceOnUse">
<stop stop-color="#F68D33"/>
<stop offset="1" stop-color="#FFCA29"/>
</linearGradient>
<linearGradient id="paint10_linear_645_137" x1="78.4866" y1="61.6198" x2="97.5753" y2="61.6198" gradientUnits="userSpaceOnUse">
<stop stop-color="#F68D33"/>
<stop offset="1" stop-color="#FFCA29"/>
</linearGradient>
<linearGradient id="paint11_linear_645_137" x1="209.278" y1="61.6198" x2="228.367" y2="61.6198" gradientUnits="userSpaceOnUse">
<stop stop-color="#F68D33"/>
<stop offset="1" stop-color="#FFCA29"/>
</linearGradient>
<linearGradient id="paint12_linear_645_137" x1="120.467" y1="75.8872" x2="127.654" y2="75.8872" gradientUnits="userSpaceOnUse">
<stop stop-color="#F68D33"/>
<stop offset="1" stop-color="#FFCA29"/>
</linearGradient>
<linearGradient id="paint13_linear_645_137" x1="128.278" y1="76.7568" x2="134.617" y2="76.7568" gradientUnits="userSpaceOnUse">
<stop stop-color="#F68D33"/>
<stop offset="1" stop-color="#FFCA29"/>
</linearGradient>
<linearGradient id="paint14_linear_645_137" x1="135.732" y1="76.7142" x2="141.643" y2="76.7142" gradientUnits="userSpaceOnUse">
<stop stop-color="#F68D33"/>
<stop offset="1" stop-color="#FFCA29"/>
</linearGradient>
<linearGradient id="paint15_linear_645_137" x1="142.758" y1="75.7037" x2="149.044" y2="75.7037" gradientUnits="userSpaceOnUse">
<stop stop-color="#F68D33"/>
<stop offset="1" stop-color="#FFCA29"/>
</linearGradient>
<linearGradient id="paint16_linear_645_137" x1="150.173" y1="76.7568" x2="156.512" y2="76.7568" gradientUnits="userSpaceOnUse">
<stop stop-color="#F68D33"/>
<stop offset="1" stop-color="#FFCA29"/>
</linearGradient>
<linearGradient id="paint17_linear_645_137" x1="157.628" y1="76.7135" x2="167.382" y2="76.7135" gradientUnits="userSpaceOnUse">
<stop stop-color="#F68D33"/>
<stop offset="1" stop-color="#FFCA29"/>
</linearGradient>
<linearGradient id="paint18_linear_645_137" x1="168.756" y1="75.6112" x2="172.001" y2="75.6112" gradientUnits="userSpaceOnUse">
<stop stop-color="#F68D33"/>
<stop offset="1" stop-color="#FFCA29"/>
</linearGradient>
<linearGradient id="paint19_linear_645_137" x1="172.129" y1="76.7142" x2="178.04" y2="76.7142" gradientUnits="userSpaceOnUse">
<stop stop-color="#F68D33"/>
<stop offset="1" stop-color="#FFCA29"/>
</linearGradient>
<linearGradient id="paint20_linear_645_137" x1="179.341" y1="75.4178" x2="181.445" y2="75.4178" gradientUnits="userSpaceOnUse">
<stop stop-color="#F68D33"/>
<stop offset="1" stop-color="#FFCA29"/>
</linearGradient>
<linearGradient id="paint21_linear_645_137" x1="182.37" y1="76.7568" x2="188.709" y2="76.7568" gradientUnits="userSpaceOnUse">
<stop stop-color="#F68D33"/>
<stop offset="1" stop-color="#FFCA29"/>
</linearGradient>
</defs>
</svg>
