<svg width="33" height="33" viewBox="0 0 33 33" fill="none" xmlns="http://www.w3.org/2000/svg">
<g clip-path="url(#clip0_645_206)">
<path d="M16.5 0C25.6124 0 33 7.38762 33 16.5C33 25.6124 25.6124 33 16.5 33C7.38762 33 0 25.6124 0 16.5C0 7.38762 7.38762 0 16.5 0ZM14.0321 24.3291V16.8178H12.9712C12.6489 16.8178 12.3879 16.5561 12.3879 16.2345V13.8561C12.3879 13.5358 12.6502 13.2735 12.9712 13.2735H14.0321V11.3612C14.0321 9.55324 15.4984 8.08758 17.3063 8.08758H20.0288C20.3511 8.08758 20.6121 8.34861 20.6121 8.67088V11.0486C20.6121 11.3708 20.3511 11.6319 20.0288 11.6319H18.4175C18.2338 11.6319 18.0823 11.7833 18.0823 11.967V13.2748L19.9934 13.2735C20.3156 13.296 20.5767 13.5132 20.5767 13.8561C20.5199 14.6618 20.4413 15.4758 20.373 16.2828C20.3479 16.5838 20.0945 16.8178 19.7923 16.8178H18.0823V24.3291C18.0823 24.6495 17.8206 24.9118 17.4997 24.9118L14.6154 24.9124C14.2938 24.9124 14.0321 24.6507 14.0321 24.3291ZM14.7939 24.1519H17.3205V16.0559H19.6286L19.7994 14.0334H17.3205V11.967C17.3205 11.3612 17.8116 10.87 18.4175 10.87H19.8503V8.84941H17.3063C15.9186 8.84941 14.7939 9.97412 14.7939 11.3612V14.0347H13.1497V16.0559H14.7939V24.1519ZM16.5 0.761191C7.80785 0.761191 0.761191 7.80785 0.761191 16.5C0.761191 25.1921 7.80785 32.2388 16.5 32.2388C25.1921 32.2388 32.2388 25.1921 32.2388 16.5C32.2388 7.80785 25.1921 0.761191 16.5 0.761191Z" fill="white"/>
</g>
<defs>
<clipPath id="clip0_645_206">
<rect width="33" height="33" fill="white"/>
</clipPath>
</defs>
</svg>
