<svg width="34" height="33" viewBox="0 0 34 33" fill="none" xmlns="http://www.w3.org/2000/svg">
<path d="M16.955 0C26.0673 0 33.455 7.38764 33.455 16.5C33.455 25.6124 26.0673 33 16.955 33C7.84259 33 0.454956 25.6124 0.454956 16.5C0.454956 7.38764 7.84259 0 16.955 0ZM13.599 8.74872C10.8272 8.87574 9.33005 10.3709 9.20432 13.144C9.10245 15.3736 9.10245 17.627 9.20432 19.856C9.33005 22.6291 10.8272 24.1249 13.599 24.2513C15.8286 24.3525 18.082 24.3525 20.3116 24.2513C23.0847 24.1243 24.5792 22.6291 24.7062 19.856C24.8075 17.6264 24.8068 15.3736 24.7062 13.144C24.5799 10.3754 23.0802 8.87509 20.3116 8.74872C18.082 8.64749 15.8286 8.64749 13.599 8.74872ZM22.6823 12.1356C22.6823 12.8868 22.073 13.4961 21.3213 13.4961C20.5708 13.4961 19.9589 12.8842 19.9589 12.1337C19.9976 11.3697 20.5347 10.7713 21.3213 10.7713C22.0447 10.7713 22.6688 11.3987 22.6823 12.1356ZM21.9241 12.1337C21.9241 11.801 21.654 11.5328 21.3213 11.5328C20.9737 11.5328 20.7358 11.7971 20.7191 12.135C20.7191 12.4696 20.9873 12.7346 21.3213 12.7346C21.6398 12.7346 21.9183 12.4625 21.9241 12.1337ZM16.955 19.6071C15.2393 19.6071 13.8479 18.2163 13.8479 16.5C13.8479 14.7824 15.2373 13.3929 16.955 13.3929C18.6713 13.3929 20.0627 14.7837 20.0627 16.5C20.0627 18.217 18.6719 19.6071 16.955 19.6071ZM16.9543 18.8476C18.2902 18.8147 19.3012 17.8604 19.3012 16.5C19.3012 15.2047 18.2509 14.1544 16.955 14.1544C15.6603 14.1544 14.608 15.2053 14.608 16.5C14.648 17.8101 15.6222 18.8476 16.9543 18.8476ZM13.1354 16.5C13.1354 18.6103 14.844 20.3208 16.955 20.3208C19.064 20.3208 20.7745 18.6084 20.7745 16.5C20.7745 14.3916 19.064 12.6792 16.955 12.6792C14.8285 12.7211 13.1354 14.3523 13.1354 16.5ZM16.955 11.9203C19.4856 11.9203 21.5366 13.9687 21.5366 16.5C21.5366 19.032 19.4869 21.081 16.955 21.081C14.4256 21.081 12.374 19.03 12.374 16.5C12.374 13.9693 14.4249 11.9203 16.955 11.9203ZM13.5668 7.99048C15.8234 7.88797 18.0872 7.88797 20.3438 7.99048C23.5141 8.13491 25.32 9.94088 25.4651 13.1112C25.567 15.3684 25.567 17.6315 25.4651 19.8888C25.3194 23.0636 23.5192 24.8644 20.3438 25.0095C18.0872 25.112 15.8234 25.112 13.5668 25.0095C10.3933 24.8651 8.58987 23.063 8.44609 19.8888C8.34292 17.6322 8.34292 15.3684 8.44609 13.1112C8.58987 9.93701 10.3933 8.13556 13.5668 7.99048ZM16.955 0.762104C8.26297 0.762104 1.21642 7.80802 1.21642 16.5C1.21642 25.192 8.26297 32.2379 16.955 32.2379C25.6469 32.2379 32.6935 25.192 32.6935 16.5C32.6935 7.80802 25.6469 0.762104 16.955 0.762104Z" fill="white"/>
</svg>
