<svg width="33" height="33" viewBox="0 0 33 33" fill="none" xmlns="http://www.w3.org/2000/svg">
<g clip-path="url(#clip0_645_211)">
<path d="M16.5001 0.00580025C25.6092 0.00580025 32.9943 7.39084 32.9943 16.5C32.9943 25.6092 25.6092 32.9942 16.5001 32.9942C7.3909 32.9942 0.00585938 25.6092 0.00585938 16.5C0.00585938 7.39084 7.3909 0.00580025 16.5001 0.00580025ZM9.70283 23.5976H12.0277V14.3879H9.70283V23.5976ZM16.9615 18.7443C16.9615 17.2915 17.646 16.1268 19.2226 16.1268C20.7791 16.1268 21.2831 17.3817 21.2831 18.7443V23.5989H23.5938V17.6653C23.5938 15.5577 22.5728 14.0837 20.3466 14.0837C19.336 14.0837 18.1688 14.6135 17.675 15.5332L16.9615 16.8345V14.3879H14.7618V23.5976H16.9615V18.7443ZM17.7227 18.7443V24.3588H14.0006V13.6267H17.7227V14.3118C18.4575 13.6537 19.3598 13.3225 20.3466 13.3225C22.9931 13.3225 24.355 15.1362 24.355 17.6653V24.3568L20.5219 24.3575V18.7443C20.5219 17.829 20.3202 16.888 19.2226 16.888C18.0779 16.888 17.7227 17.7207 17.7227 18.7443ZM10.8507 12.3215C11.6564 12.3215 12.2951 11.6628 12.2951 10.8616C12.2951 10.0598 11.6564 9.40242 10.8507 9.40242C10.0451 9.40242 9.40635 10.0598 9.40635 10.8616C9.40635 11.6628 10.0444 12.3215 10.8507 12.3215ZM10.8507 13.0827C9.62807 13.0827 8.64516 12.0798 8.64516 10.8616C8.64516 9.64348 9.62807 8.64123 10.8507 8.64123C12.0728 8.64123 13.0563 9.64348 13.0563 10.8616C13.0563 12.0792 12.0728 13.0827 10.8507 13.0827ZM8.94164 24.3588V13.6267H12.7888V24.3588H8.94164ZM16.5001 0.767636C7.81113 0.767636 0.767051 7.81107 0.767051 16.5C0.767051 25.1889 7.81113 32.2324 16.5001 32.2324C25.189 32.2324 32.2331 25.1889 32.2331 16.5C32.2331 7.81107 25.189 0.767636 16.5001 0.767636Z" fill="white"/>
</g>
<defs>
<clipPath id="clip0_645_211">
<rect width="33" height="33" fill="white"/>
</clipPath>
</defs>
</svg>
